{
    "asset" : {
        "generator" : "Khronos glTF Blender I/O v3.2.40",
        "version" : "2.0"
    },
    "scene" : 0,
    "scenes" : [
        {
            "name" : "Scene",
            "nodes" : [
                0,
                1,
                2,
                3
            ]
        }
    ],
    "nodes" : [
        {
            "mesh" : 0,
            "name" : "gas pump red",
            "translation" : [
                -10.056462287902832,
                1.504841685295105,
                -4.368359088897705
            ]
        },
        {
            "mesh" : 1,
            "name" : "gasstation red",
            "translation" : [
                -3.2813785076141357,
                2.7076575756073,
                -10.315828323364258
            ]
        },
        {
            "mesh" : 2,
            "name" : "gasstation green",
            "translation" : [
                -3.2813785076141357,
                2.7076575756073,
                -10.316514015197754
            ]
        },
        {
            "mesh" : 3,
            "name" : "gas pump green",
            "translation" : [
                -10.056462287902832,
                1.504841685295105,
                -4.369044303894043
            ]
        }
    ],
    "materials" : [
        {
            "doubleSided" : true,
            "name" : "gas pump red",
            "pbrMetallicRoughness" : {}
        },
        {
            "doubleSided" : true,
            "name" : "gasstation red",
            "pbrMetallicRoughness" : {}
        },
        {
            "doubleSided" : true,
            "name" : "gasstation green",
            "pbrMetallicRoughness" : {}
        },
        {
            "doubleSided" : true,
            "name" : "gas pump green",
            "pbrMetallicRoughness" : {}
        }
    ],
    "meshes" : [
        {
            "name" : "Plane.005",
            "primitives" : [
                {
                    "attributes" : {
                        "POSITION" : 0,
                        "NORMAL" : 1,
                        "TEXCOORD_0" : 2
                    },
                    "indices" : 3,
                    "material" : 0
                }
            ]
        },
        {
            "name" : "Plane.004",
            "primitives" : [
                {
                    "attributes" : {
                        "POSITION" : 4,
                        "NORMAL" : 5,
                        "TEXCOORD_0" : 6
                    },
                    "indices" : 7,
                    "material" : 1
                }
            ]
        },
        {
            "name" : "Plane.002",
            "primitives" : [
                {
                    "attributes" : {
                        "POSITION" : 8,
                        "NORMAL" : 9,
                        "TEXCOORD_0" : 10
                    },
                    "indices" : 7,
                    "material" : 2
                }
            ]
        },
        {
            "name" : "Plane.001",
            "primitives" : [
                {
                    "attributes" : {
                        "POSITION" : 11,
                        "NORMAL" : 12,
                        "TEXCOORD_0" : 13
                    },
                    "indices" : 3,
                    "material" : 3
                }
            ]
        }
    ],
    "accessors" : [
        {
            "bufferView" : 0,
            "componentType" : 5126,
            "count" : 1447,
            "max" : [
                12.670032501220703,
                2.9733712673187256,
                0.4077577292919159
            ],
            "min" : [
                -2.9318246841430664,
                -1.311647653579712,
                -0.48413848876953125
            ],
            "type" : "VEC3"
        },
        {
            "bufferView" : 1,
            "componentType" : 5126,
            "count" : 1447,
            "type" : "VEC3"
        },
        {
            "bufferView" : 2,
            "componentType" : 5126,
            "count" : 1447,
            "type" : "VEC2"
        },
        {
            "bufferView" : 3,
            "componentType" : 5123,
            "count" : 1806,
            "type" : "SCALAR"
        },
        {
            "bufferView" : 4,
            "componentType" : 5126,
            "count" : 627,
            "max" : [
                12.75977611541748,
                3.406674861907959,
                9.33238697052002
            ],
            "min" : [
                -15.893458366394043,
                -2.528984785079956,
                -5.3203277587890625
            ],
            "type" : "VEC3"
        },
        {
            "bufferView" : 5,
            "componentType" : 5126,
            "count" : 627,
            "type" : "VEC3"
        },
        {
            "bufferView" : 6,
            "componentType" : 5126,
            "count" : 627,
            "type" : "VEC2"
        },
        {
            "bufferView" : 7,
            "componentType" : 5123,
            "count" : 888,
            "type" : "SCALAR"
        },
        {
            "bufferView" : 8,
            "componentType" : 5126,
            "count" : 627,
            "max" : [
                12.75977611541748,
                3.406674861907959,
                9.33238697052002
            ],
            "min" : [
                -15.893458366394043,
                -2.528984785079956,
                -5.3203277587890625
            ],
            "type" : "VEC3"
        },
        {
            "bufferView" : 9,
            "componentType" : 5126,
            "count" : 627,
            "type" : "VEC3"
        },
        {
            "bufferView" : 10,
            "componentType" : 5126,
            "count" : 627,
            "type" : "VEC2"
        },
        {
            "bufferView" : 11,
            "componentType" : 5126,
            "count" : 1447,
            "max" : [
                12.670032501220703,
                2.9733712673187256,
                0.4077577292919159
            ],
            "min" : [
                -2.9318246841430664,
                -1.311647653579712,
                -0.48413848876953125
            ],
            "type" : "VEC3"
        },
        {
            "bufferView" : 12,
            "componentType" : 5126,
            "count" : 1447,
            "type" : "VEC3"
        },
        {
            "bufferView" : 13,
            "componentType" : 5126,
            "count" : 1447,
            "type" : "VEC2"
        }
    ],
    "bufferViews" : [
        {
            "buffer" : 0,
            "byteLength" : 17364,
            "byteOffset" : 0
        },
        {
            "buffer" : 0,
            "byteLength" : 17364,
            "byteOffset" : 17364
        },
        {
            "buffer" : 0,
            "byteLength" : 11576,
            "byteOffset" : 34728
        },
        {
            "buffer" : 0,
            "byteLength" : 3612,
            "byteOffset" : 46304
        },
        {
            "buffer" : 0,
            "byteLength" : 7524,
            "byteOffset" : 49916
        },
        {
            "buffer" : 0,
            "byteLength" : 7524,
            "byteOffset" : 57440
        },
        {
            "buffer" : 0,
            "byteLength" : 5016,
            "byteOffset" : 64964
        },
        {
            "buffer" : 0,
            "byteLength" : 1776,
            "byteOffset" : 69980
        },
        {
            "buffer" : 0,
            "byteLength" : 7524,
            "byteOffset" : 71756
        },
        {
            "buffer" : 0,
            "byteLength" : 7524,
            "byteOffset" : 79280
        },
        {
            "buffer" : 0,
            "byteLength" : 5016,
            "byteOffset" : 86804
        },
        {
            "buffer" : 0,
            "byteLength" : 17364,
            "byteOffset" : 91820
        },
        {
            "buffer" : 0,
            "byteLength" : 17364,
            "byteOffset" : 109184
        },
        {
            "buffer" : 0,
            "byteLength" : 11576,
            "byteOffset" : 126548
        }
    ],
    "buffers" : [
        {
            "byteLength" : 138124,
            "uri" : "data:application/octet-stream;base64,"
        }
    ]
}
